<svg xmlns="http://www.w3.org/2000/svg" viewBox="0 0 130 151"><linearGradient id="a" gradientUnits="userSpaceOnUse" x1="161.202" y1="-164.204" x2="177.195" y2="-287.26" gradientTransform="matrix(1 0 0 -1 -147.638 -142.945)"><stop offset=".011" stop-color="#003a92"/><stop offset=".287" stop-color="#1673ff"/><stop offset="1" stop-color="#56ccf2"/></linearGradient><path d="M24.8 120l8-21.8h-3.1L25.9 109c-1 2.9-1.9 5.6-2.5 8.1h-.1c-.6-2.6-1.4-5.2-2.4-8.2l-3.5-10.8h-3.1l7.3 21.8h3.2z" fill="url(#a)"/><linearGradient id="b" gradientUnits="userSpaceOnUse" x1="172.618" y1="-162.72" x2="188.611" y2="-285.777" gradientTransform="matrix(1 0 0 -1 -147.638 -142.945)"><stop offset=".011" stop-color="#003a92"/><stop offset=".287" stop-color="#1673ff"/><stop offset="1" stop-color="#56ccf2"/></linearGradient><path d="M35.1 98.1V120H38V98.1h-2.9z" fill="url(#b)"/><linearGradient id="c" gradientUnits="userSpaceOnUse" x1="184.077" y1="-161.231" x2="200.07" y2="-284.288" gradientTransform="matrix(1 0 0 -1 -147.638 -142.945)"><stop offset=".011" stop-color="#003a92"/><stop offset=".287" stop-color="#1673ff"/><stop offset="1" stop-color="#56ccf2"/></linearGradient><path d="M41.9 118.9c1.2.8 3.5 1.4 5.7 1.4 5.2 0 7.8-2.9 7.8-6.3 0-3.2-1.9-5-5.7-6.4-3.1-1.2-4.4-2.2-4.4-4.2 0-1.5 1.2-3.3 4.2-3.3 2 0 3.5.6 4.2 1l.8-2.3c-1-.6-2.6-1.1-4.9-1.1-4.3 0-7.2 2.5-7.2 5.9 0 3.1 2.2 4.9 5.9 6.2 3 1.1 4.2 2.3 4.2 4.3 0 2.2-1.7 3.7-4.7 3.7-2 0-3.9-.6-5.2-1.4l-.7 2.5z" fill="url(#c)"/><linearGradient id="d" gradientUnits="userSpaceOnUse" x1="196.397" y1="-159.63" x2="212.389" y2="-282.687" gradientTransform="matrix(1 0 0 -1 -147.638 -142.945)"><stop offset=".011" stop-color="#003a92"/><stop offset=".287" stop-color="#1673ff"/><stop offset="1" stop-color="#56ccf2"/></linearGradient><path d="M59.3 98.1V120h2.9V98.1h-2.9z" fill="url(#d)"/><linearGradient id="e" gradientUnits="userSpaceOnUse" x1="209.595" y1="-157.915" x2="225.587" y2="-280.971" gradientTransform="matrix(1 0 0 -1 -147.638 -142.945)"><stop offset=".011" stop-color="#003a92"/><stop offset=".287" stop-color="#1673ff"/><stop offset="1" stop-color="#56ccf2"/></linearGradient><path d="M71.5 120h2.9v-19.4h6.8v-2.4H64.7v2.4h6.8V120z" fill="url(#e)"/><linearGradient id="f" gradientUnits="userSpaceOnUse" x1="227.714" y1="-155.56" x2="243.707" y2="-278.616" gradientTransform="matrix(1 0 0 -1 -147.638 -142.945)"><stop offset=".011" stop-color="#003a92"/><stop offset=".287" stop-color="#1673ff"/><stop offset="1" stop-color="#56ccf2"/></linearGradient><path d="M92.4 120v-9.3l7.5-12.5h-3.3l-3.2 6c-.9 1.7-1.6 3.1-2.2 4.5h-.1c-.7-1.5-1.4-2.9-2.2-4.5l-3.1-6h-3.3l7 12.6v9.3h2.9z" fill="url(#f)"/><linearGradient id="g" gradientUnits="userSpaceOnUse" x1="242.065" y1="-153.695" x2="258.058" y2="-276.751" gradientTransform="matrix(1 0 0 -1 -147.638 -142.945)"><stop offset=".011" stop-color="#003a92"/><stop offset=".287" stop-color="#1673ff"/><stop offset="1" stop-color="#56ccf2"/></linearGradient><path d="M100.9 118.9c1.2.8 3.5 1.4 5.7 1.4 5.2 0 7.8-2.9 7.8-6.3 0-3.2-1.9-5-5.7-6.4-3.1-1.2-4.4-2.2-4.4-4.2 0-1.5 1.2-3.3 4.2-3.3 2 0 3.5.6 4.2 1l.8-2.3c-1-.6-2.6-1.1-4.9-1.1-4.3 0-7.2 2.5-7.2 5.9 0 3.1 2.2 4.9 5.9 6.2 3 1.1 4.2 2.3 4.2 4.3 0 2.2-1.7 3.7-4.7 3.7-2 0-3.9-.6-5.2-1.4l-.7 2.5z" fill="url(#g)"/><linearGradient id="h" gradientUnits="userSpaceOnUse" x1="186.457" y1="-160.922" x2="202.449" y2="-283.978" gradientTransform="matrix(1 0 0 -1 -147.638 -142.945)"><stop offset=".011" stop-color="#003a92"/><stop offset=".287" stop-color="#1673ff"/><stop offset="1" stop-color="#56ccf2"/></linearGradient><path d="M61.2 59.7c.3 1.2.1 2.2-.1 3.1-.4 1.6-1.1 6.9-2.2 12.3-1.6 7.4-2.6 13.6-7.8 14.6-3.4.7-6.5-3.7-7-5.3-1.5-4.8-6.7-26.3-9.3-36.4-.9-3.6-1.4-7-3.6-9.9-1-1.4-4.6-1.8-7-2.4 0 0 10.2-.4 12.3-.9 1.5-.4 5.5-1.6 7.3-1.9 3.1-.5 6.2.4 7.3 1.2 2.2 1.7 2.2 3.1 3.5 6.7 1.2 4.1 6 16.8 6.6 18.9z" fill="url(#h)"/><linearGradient id="i" gradientUnits="userSpaceOnUse" x1="218.762" y1="-156.723" x2="234.755" y2="-279.78" gradientTransform="matrix(1 0 0 -1 -147.638 -142.945)"><stop offset=".011" stop-color="#003a92"/><stop offset=".287" stop-color="#1673ff"/><stop offset="1" stop-color="#56ccf2"/></linearGradient><path d="M99 13.1s-4.1 12.8-6.1 22.6c-4.3 20.6-6.3 33.6-8 41.9-1.7 8.1-3.1 10.4-5.6 11.3-7.6 2.7-22.2 1.7-26.1 2 .1 0 2.7-1.8 3.7-3.1 3.2-4 9.9-55.3 11.7-61.1.9-2.8 2.2-6.9 6-8.8C80 15.4 99 13.1 99 13.1z" fill-rule="evenodd" clip-rule="evenodd" fill="url(#i)"/><linearGradient id="j" gradientUnits="userSpaceOnUse" x1="158.639" y1="-164.537" x2="174.632" y2="-287.594" gradientTransform="matrix(1 0 0 -1 -147.638 -142.945)"><stop offset=".011" stop-color="#003a92"/><stop offset=".287" stop-color="#1673ff"/><stop offset="1" stop-color="#56ccf2"/></linearGradient><path d="M21.6 128.2l2.6 6.8h1.2l2.7-6.8h-1.3l-1.3 3.8c-.2.6-.4 1.2-.6 1.7-.1-.6-.3-1.1-.6-1.7l-1.3-3.8h-1.4z" fill="url(#j)"/><linearGradient id="k" gradientUnits="userSpaceOnUse" x1="163.08" y1="-163.96" x2="179.073" y2="-287.016" gradientTransform="matrix(1 0 0 -1 -147.638 -142.945)"><stop offset=".011" stop-color="#003a92"/><stop offset=".287" stop-color="#1673ff"/><stop offset="1" stop-color="#56ccf2"/></linearGradient><path d="M30.2 135v-6.8H29v6.8h1.2zm-.6-9.5c-.5 0-.8.3-.8.8 0 .4.3.8.7.8.5 0 .8-.3.8-.8.1-.4-.2-.8-.7-.8z" fill="url(#k)"/><linearGradient id="l" gradientUnits="userSpaceOnUse" x1="166.871" y1="-163.467" x2="182.864" y2="-286.524" gradientTransform="matrix(1 0 0 -1 -147.638 -142.945)"><stop offset=".011" stop-color="#003a92"/><stop offset=".287" stop-color="#1673ff"/><stop offset="1" stop-color="#56ccf2"/></linearGradient><path d="M31.5 134.6c.5.3 1.2.5 1.9.5 1.6 0 2.6-.8 2.6-2 0-1-.6-1.6-1.8-2-.9-.3-1.3-.6-1.3-1.1 0-.5.4-.9 1.1-.9.6 0 1.1.2 1.4.4l.3-.9c-.4-.2-1-.4-1.7-.4-1.5 0-2.4.9-2.4 2 0 .8.6 1.5 1.8 1.9.9.3 1.3.7 1.3 1.2 0 .6-.4 1-1.3 1-.6 0-1.3-.3-1.6-.5l-.3.8z" fill="url(#l)"/><linearGradient id="m" gradientUnits="userSpaceOnUse" x1="171.297" y1="-162.892" x2="187.29" y2="-285.949" gradientTransform="matrix(1 0 0 -1 -147.638 -142.945)"><stop offset=".011" stop-color="#003a92"/><stop offset=".287" stop-color="#1673ff"/><stop offset="1" stop-color="#56ccf2"/></linearGradient><path d="M38.6 135v-6.8h-1.2v6.8h1.2zm-.6-9.5c-.5 0-.8.3-.8.8 0 .4.3.8.7.8.5 0 .8-.3.8-.8 0-.4-.3-.8-.7-.8z" fill="url(#m)"/><linearGradient id="n" gradientUnits="userSpaceOnUse" x1="175.075" y1="-162.401" x2="191.067" y2="-285.457" gradientTransform="matrix(1 0 0 -1 -147.638 -142.945)"><stop offset=".011" stop-color="#003a92"/><stop offset=".287" stop-color="#1673ff"/><stop offset="1" stop-color="#56ccf2"/></linearGradient><path d="M40.7 126.6v1.6h-1.1v.9h1.1v3.7c0 .8.1 1.4.5 1.8.3.3.8.5 1.3.5s.9-.1 1.1-.2l-.1-.9c-.2 0-.4.1-.7.1-.7 0-.9-.5-.9-1.3v-3.7h1.8v-.9h-1.8v-1.9l-1.2.3z" fill="url(#n)"/><linearGradient id="o" gradientUnits="userSpaceOnUse" x1="180.518" y1="-161.694" x2="196.51" y2="-284.75" gradientTransform="matrix(1 0 0 -1 -147.638 -142.945)"><stop offset=".011" stop-color="#003a92"/><stop offset=".287" stop-color="#1673ff"/><stop offset="1" stop-color="#56ccf2"/></linearGradient><path d="M47.6 128c-1.9 0-3.4 1.3-3.4 3.6 0 2.1 1.4 3.5 3.3 3.5 1.7 0 3.4-1.1 3.4-3.6 0-2-1.3-3.5-3.3-3.5zm0 1c1.5 0 2.1 1.5 2.1 2.6 0 1.5-.9 2.6-2.1 2.6-1.2 0-2.1-1.1-2.1-2.6 0-1.3.6-2.6 2.1-2.6z" fill="url(#o)"/><linearGradient id="p" gradientUnits="userSpaceOnUse" x1="186.739" y1="-160.885" x2="202.731" y2="-283.942" gradientTransform="matrix(1 0 0 -1 -147.638 -142.945)"><stop offset=".011" stop-color="#003a92"/><stop offset=".287" stop-color="#1673ff"/><stop offset="1" stop-color="#56ccf2"/></linearGradient><path d="M52.2 135h1.2v-3.6c0-.2 0-.4.1-.6.2-.9.8-1.6 1.7-1.6h.4V128h-.4c-.8 0-1.6.6-1.9 1.5h-.1v-1.3h-1.1c0 .6.1 1.3.1 2.1v4.7z" fill="url(#p)"/><linearGradient id="q" gradientUnits="userSpaceOnUse" x1="190.958" y1="-160.337" x2="206.95" y2="-283.393" gradientTransform="matrix(1 0 0 -1 -147.638 -142.945)"><stop offset=".011" stop-color="#003a92"/><stop offset=".287" stop-color="#1673ff"/><stop offset="1" stop-color="#56ccf2"/></linearGradient><path d="M56 134.6c.5.3 1.2.5 1.9.5 1.6 0 2.6-.8 2.6-2 0-1-.6-1.6-1.8-2-.9-.3-1.3-.6-1.3-1.1 0-.5.4-.9 1.1-.9.6 0 1.1.2 1.4.4l.3-.9c-.4-.2-1-.4-1.7-.4-1.5 0-2.4.9-2.4 2 0 .8.6 1.5 1.8 1.9.9.3 1.3.7 1.3 1.2 0 .6-.4 1-1.3 1-.6 0-1.3-.3-1.6-.5l-.3.8z" fill="url(#q)"/><linearGradient id="r" gradientUnits="userSpaceOnUse" x1="199.576" y1="-159.217" x2="215.568" y2="-282.273" gradientTransform="matrix(1 0 0 -1 -147.638 -142.945)"><stop offset=".011" stop-color="#003a92"/><stop offset=".287" stop-color="#1673ff"/><stop offset="1" stop-color="#56ccf2"/></linearGradient><path d="M63.6 128.2l2.5 6.2c.1.2.1.3.1.3 0 .1 0 .2-.1.3-.3.6-.7 1.1-1 1.4-.4.3-.8.5-1.1.6l.3 1c.3-.1.9-.3 1.5-.8.8-.7 1.5-1.9 2.3-4.2l1.9-4.8h-1.3l-1.4 4c-.2.5-.3 1-.4 1.4-.1-.4-.3-.9-.4-1.4l-1.5-4h-1.4z" fill="url(#r)"/><linearGradient id="s" gradientUnits="userSpaceOnUse" x1="206.18" y1="-158.359" x2="222.172" y2="-281.415" gradientTransform="matrix(1 0 0 -1 -147.638 -142.945)"><stop offset=".011" stop-color="#003a92"/><stop offset=".287" stop-color="#1673ff"/><stop offset="1" stop-color="#56ccf2"/></linearGradient><path d="M73.7 128c-1.9 0-3.4 1.3-3.4 3.6 0 2.1 1.4 3.5 3.3 3.5 1.7 0 3.4-1.1 3.4-3.6 0-2-1.3-3.5-3.3-3.5zm0 1c1.5 0 2.1 1.5 2.1 2.6 0 1.5-.9 2.6-2.1 2.6-1.2 0-2.1-1.1-2.1-2.6 0-1.3.6-2.6 2.1-2.6z" fill="url(#s)"/><linearGradient id="t" gradientUnits="userSpaceOnUse" x1="213.682" y1="-157.384" x2="229.675" y2="-280.44" gradientTransform="matrix(1 0 0 -1 -147.638 -142.945)"><stop offset=".011" stop-color="#003a92"/><stop offset=".287" stop-color="#1673ff"/><stop offset="1" stop-color="#56ccf2"/></linearGradient><path d="M84 128.2h-1.2v4.2c0 .2 0 .4-.1.6-.2.5-.8 1.1-1.6 1.1-1.1 0-1.5-.9-1.5-2.2v-3.8h-1.2v4c0 2.4 1.3 3 2.4 3 1.2 0 1.9-.7 2.3-1.3l.1 1.1h1.1c0-.5-.1-1.1-.1-1.8v-4.9z" fill="url(#t)"/><linearGradient id="u" gradientUnits="userSpaceOnUse" x1="219.782" y1="-156.591" x2="235.774" y2="-279.647" gradientTransform="matrix(1 0 0 -1 -147.638 -142.945)"><stop offset=".011" stop-color="#003a92"/><stop offset=".287" stop-color="#1673ff"/><stop offset="1" stop-color="#56ccf2"/></linearGradient><path d="M85.8 135H87v-3.6c0-.2 0-.4.1-.6.2-.9.8-1.6 1.7-1.6h.4V128h-.4c-.8 0-1.6.6-1.9 1.5h-.1v-1.3h-1.1c0 .6.1 1.3.1 2.1v4.7z" fill="url(#u)"/><linearGradient id="v" gradientUnits="userSpaceOnUse" x1="226.67" y1="-155.696" x2="242.662" y2="-278.752" gradientTransform="matrix(1 0 0 -1 -147.638 -142.945)"><stop offset=".011" stop-color="#003a92"/><stop offset=".287" stop-color="#1673ff"/><stop offset="1" stop-color="#56ccf2"/></linearGradient><path d="M92.4 134.6c.5.3 1.2.5 1.9.5 1.6 0 2.6-.8 2.6-2 0-1-.6-1.6-1.8-2-.9-.3-1.3-.6-1.3-1.1 0-.5.4-.9 1.1-.9.6 0 1.1.2 1.4.4l.3-.9c-.4-.2-1-.4-1.7-.4-1.5 0-2.4.9-2.4 2 0 .8.6 1.5 1.8 1.9.9.3 1.3.7 1.3 1.2 0 .6-.4 1-1.3 1-.6 0-1.3-.3-1.6-.5l-.3.8z" fill="url(#v)"/><linearGradient id="w" gradientUnits="userSpaceOnUse" x1="231.096" y1="-155.121" x2="247.088" y2="-278.177" gradientTransform="matrix(1 0 0 -1 -147.638 -142.945)"><stop offset=".011" stop-color="#003a92"/><stop offset=".287" stop-color="#1673ff"/><stop offset="1" stop-color="#56ccf2"/></linearGradient><path d="M99.4 135v-6.8h-1.2v6.8h1.2zm-.6-9.5c-.5 0-.8.3-.8.8 0 .4.3.8.7.8.5 0 .8-.3.8-.8 0-.4-.3-.8-.7-.8z" fill="url(#w)"/><linearGradient id="x" gradientUnits="userSpaceOnUse" x1="234.874" y1="-154.63" x2="250.866" y2="-277.686" gradientTransform="matrix(1 0 0 -1 -147.638 -142.945)"><stop offset=".011" stop-color="#003a92"/><stop offset=".287" stop-color="#1673ff"/><stop offset="1" stop-color="#56ccf2"/></linearGradient><path d="M101.5 126.6v1.6h-1.1v.9h1.1v3.7c0 .8.1 1.4.5 1.8.3.3.8.5 1.3.5s.9-.1 1.1-.2l-.1-.9c-.2 0-.4.1-.7.1-.7 0-.9-.5-.9-1.3v-3.7h1.8v-.9h-1.8v-1.9l-1.2.3z" fill="url(#x)"/><linearGradient id="y" gradientUnits="userSpaceOnUse" x1="240.009" y1="-153.962" x2="256.002" y2="-277.019" gradientTransform="matrix(1 0 0 -1 -147.638 -142.945)"><stop offset=".011" stop-color="#003a92"/><stop offset=".287" stop-color="#1673ff"/><stop offset="1" stop-color="#56ccf2"/></linearGradient><path d="M111 131.8v-.6c0-1.2-.6-3.2-2.8-3.2-2 0-3.2 1.6-3.2 3.7 0 2 1.3 3.4 3.4 3.4 1.1 0 1.8-.2 2.3-.4l-.2-.9c-.5.2-1 .3-1.9.3-1.2 0-2.3-.7-2.3-2.3h4.7zm-4.8-.9c.1-.9.7-2 1.9-2 1.4 0 1.7 1.2 1.7 2h-3.6z" fill="url(#y)"/></svg>