<svg width="65" height="70" viewBox="0 0 65 70" fill="none" xmlns="http://www.w3.org/2000/svg">
<path d="M6.7811 69.7885L11.9528 55.5347H9.95706L7.51071 62.577C6.86694 64.4381 6.26608 66.2356 5.85836 67.8852H5.81544C5.42917 66.2145 4.89269 64.4804 4.27038 62.5559L2.01716 55.5347H0L4.72102 69.7885H6.7811Z" fill="url(#paint0_linear)"/>
<path d="M13.5111 55.5347V69.7885H15.378V55.5347H13.5111Z" fill="url(#paint1_linear)"/>
<path d="M17.9157 69.0906C18.6883 69.5982 20.2119 70 21.6067 70C25.0187 70 26.6711 68.0967 26.6711 65.8973C26.6711 63.8036 25.4264 62.6405 22.9801 61.71C20.9844 60.9486 20.1046 60.293 20.1046 58.9607C20.1046 57.9879 20.8556 56.8248 22.8299 56.8248C24.1389 56.8248 25.1046 57.2477 25.5767 57.5015L26.0917 56C25.4479 55.6405 24.3749 55.3021 22.8943 55.3021C20.0831 55.3021 18.2162 56.9517 18.2162 59.1722C18.2162 61.1813 19.6754 62.3867 22.0359 63.2115C23.9887 63.9517 24.7612 64.713 24.7612 66.0453C24.7612 67.4834 23.6453 68.4773 21.7355 68.4773C20.4479 68.4773 19.2247 68.0544 18.3878 67.5468L17.9157 69.0906Z" fill="url(#paint2_linear)"/>
<path d="M29.2282 55.5347V69.7885H31.0952V55.5347H29.2282Z" fill="url(#paint3_linear)"/>
<path d="M37.1093 69.7885H38.9977V57.0997H43.4183V55.5347H32.7102V57.0997H37.1093V69.7885Z" fill="url(#paint4_linear)"/>
<path d="M50.7442 69.7885V63.719L55.594 55.5347H53.4696L51.388 59.4683C50.8301 60.5468 50.3365 61.4773 49.9288 62.4079H49.8859C49.4352 61.4139 49.0061 60.5468 48.4481 59.4683L46.4095 55.5347H44.285L48.8558 63.7402V69.7885H50.7442Z" fill="url(#paint5_linear)"/>
<path d="M56.2447 69.0906C57.0172 69.5982 58.5408 70 59.9356 70C63.3476 70 65 68.0967 65 65.8973C65 63.8036 63.7554 62.6405 61.309 61.71C59.3133 60.9486 58.4335 60.293 58.4335 58.9607C58.4335 57.9879 59.1846 56.8248 61.1588 56.8248C62.4678 56.8248 63.4335 57.2477 63.9056 57.5015L64.4206 56C63.7768 55.6405 62.7039 55.3021 61.2232 55.3021C58.412 55.3021 56.5451 56.9517 56.5451 59.1722C56.5451 61.1813 58.0043 62.3867 60.3648 63.2115C62.3176 63.9517 63.0901 64.713 63.0901 66.0453C63.0901 67.4834 61.9743 68.4773 60.0644 68.4773C58.7768 68.4773 57.5537 68.0544 56.7168 67.5468L56.2447 69.0906Z" fill="url(#paint6_linear)"/>
<path d="M30.448 30.4463C30.6657 31.245 30.5131 31.8672 30.3764 32.4894C30.1428 33.5481 29.6823 36.9657 28.9312 40.5491C27.9199 45.3703 27.2683 49.3981 23.859 50.1013C21.6228 50.5616 19.6348 47.6562 19.3177 46.6346C18.3409 43.501 14.9409 29.4685 13.2993 22.8855C12.722 20.5678 12.3822 18.3495 10.9317 16.4417C10.2509 15.5462 7.92187 15.2464 6.35192 14.8855C6.35192 14.859 13.01 14.6374 14.3543 14.2925C15.3125 14.0484 17.9375 13.2311 19.0682 13.064C21.0747 12.7681 23.1264 13.3015 23.8324 13.8613C25.2471 14.981 25.2644 15.8938 26.0752 18.2288C26.9631 20.784 30.0671 29.0453 30.448 30.4463Z" fill="url(#paint7_linear)"/>
<path fill-rule="evenodd" clip-rule="evenodd" d="M54.9927 0C54.9927 0 52.3478 8.37541 51.0273 14.7581C48.2444 28.2042 46.9545 36.7162 45.8357 42.0774C44.7369 47.3391 43.8252 48.8966 42.1889 49.4803C37.2813 51.2302 27.7766 50.5695 25.2458 50.7553C25.3042 50.7553 26.9923 49.5745 27.6399 48.7639C29.7274 46.153 34.0431 12.6765 35.2442 8.91537C35.8268 7.09383 36.6602 4.40064 39.1538 3.19998C42.6826 1.50049 54.9927 0 54.9927 0Z" fill="url(#paint8_linear)"/>
<defs>
<linearGradient id="paint0_linear" x1="29.1874" y1="1.26816" x2="36.9364" y2="70.4761" gradientUnits="userSpaceOnUse">
<stop offset="0.0110497" stop-color="#003A92"/>
<stop offset="0.287293" stop-color="#1673FF"/>
<stop offset="1" stop-color="#56CCF2"/>
</linearGradient>
<linearGradient id="paint1_linear" x1="29.1874" y1="1.26816" x2="36.9364" y2="70.4761" gradientUnits="userSpaceOnUse">
<stop offset="0.0110497" stop-color="#003A92"/>
<stop offset="0.287293" stop-color="#1673FF"/>
<stop offset="1" stop-color="#56CCF2"/>
</linearGradient>
<linearGradient id="paint2_linear" x1="29.1874" y1="1.26816" x2="36.9364" y2="70.4761" gradientUnits="userSpaceOnUse">
<stop offset="0.0110497" stop-color="#003A92"/>
<stop offset="0.287293" stop-color="#1673FF"/>
<stop offset="1" stop-color="#56CCF2"/>
</linearGradient>
<linearGradient id="paint3_linear" x1="29.1874" y1="1.26816" x2="36.9364" y2="70.4761" gradientUnits="userSpaceOnUse">
<stop offset="0.0110497" stop-color="#003A92"/>
<stop offset="0.287293" stop-color="#1673FF"/>
<stop offset="1" stop-color="#56CCF2"/>
</linearGradient>
<linearGradient id="paint4_linear" x1="29.1874" y1="1.26816" x2="36.9364" y2="70.4761" gradientUnits="userSpaceOnUse">
<stop offset="0.0110497" stop-color="#003A92"/>
<stop offset="0.287293" stop-color="#1673FF"/>
<stop offset="1" stop-color="#56CCF2"/>
</linearGradient>
<linearGradient id="paint5_linear" x1="29.1874" y1="1.26816" x2="36.9364" y2="70.4761" gradientUnits="userSpaceOnUse">
<stop offset="0.0110497" stop-color="#003A92"/>
<stop offset="0.287293" stop-color="#1673FF"/>
<stop offset="1" stop-color="#56CCF2"/>
</linearGradient>
<linearGradient id="paint6_linear" x1="29.1874" y1="1.26816" x2="36.9364" y2="70.4761" gradientUnits="userSpaceOnUse">
<stop offset="0.0110497" stop-color="#003A92"/>
<stop offset="0.287293" stop-color="#1673FF"/>
<stop offset="1" stop-color="#56CCF2"/>
</linearGradient>
<linearGradient id="paint7_linear" x1="29.1874" y1="1.26816" x2="36.9364" y2="70.4761" gradientUnits="userSpaceOnUse">
<stop offset="0.0110497" stop-color="#003A92"/>
<stop offset="0.287293" stop-color="#1673FF"/>
<stop offset="1" stop-color="#56CCF2"/>
</linearGradient>
<linearGradient id="paint8_linear" x1="29.1874" y1="1.26816" x2="36.9364" y2="70.4761" gradientUnits="userSpaceOnUse">
<stop offset="0.0110497" stop-color="#003A92"/>
<stop offset="0.287293" stop-color="#1673FF"/>
<stop offset="1" stop-color="#56CCF2"/>
</linearGradient>
</defs>
</svg>
