<svg width="21" height="20" viewBox="0 0 21 20" fill="none" xmlns="http://www.w3.org/2000/svg">
<path d="M13.5973 17.9777L16.2136 19.94C16.4079 20.0867 16.6893 19.9479 16.6893 19.7022V18.2156C16.6893 18.053 16.8241 17.9183 16.9867 17.9183H19.9995C20.162 17.9183 20.2968 17.7835 20.2968 17.6209V7.47255C20.2968 7.31001 20.162 7.17523 19.9995 7.17523H13.4189C13.2563 7.17523 13.1216 7.04045 13.1216 6.87791V0.297316C13.1216 0.134783 12.9868 0 12.8242 0H0.297316C0.134783 0 0 0.134783 0 0.297316V10.4457C0 10.6082 0.134783 10.743 0.297316 10.743H3.31012C3.47265 10.743 3.60744 10.8778 3.60744 11.0403V12.5269C3.60744 12.7727 3.8889 12.9115 4.08314 12.7648L6.69952 10.8025C6.75106 10.7628 6.81449 10.743 6.87791 10.743C7.04045 10.743 7.17523 10.8778 7.17523 11.0403V17.6209C7.17523 17.7835 7.31001 17.9183 7.47255 17.9183H13.4189C13.4823 17.9183 13.5457 17.9381 13.5973 17.9777ZM19.1075 16.729H15.5001V17.9183L13.9144 16.729H8.3645V8.3645H19.1075V16.729ZM6.38239 9.55376L4.7967 10.743V9.55376H1.18926V1.18926H11.9323V7.17523H9.3278L6.5806 1.68479L3.67086 7.50426L4.73327 8.03547L5.46269 6.5806H7.70247L7.99979 7.17523H7.17523V9.55376H6.38239ZM7.10387 5.39133H6.05336L6.57663 4.34082L7.10387 5.39133Z" fill="#FAFAFA"/>
<path d="M12.8837 13.4942C12.2455 14.0333 11.6429 14.3108 11.3377 14.3108V15.5001C12.1028 15.5001 13.0224 14.9411 13.7162 14.3465C14.4099 14.9411 15.3296 15.5001 16.0947 15.5001V14.3108C15.7895 14.3108 15.1869 14.0333 14.5487 13.4942C14.8936 13.074 15.2583 12.523 15.4168 11.9323H16.6893V10.743H14.3108V9.55376H13.1216V10.743H10.743V11.9323H12.0155C12.1741 12.5269 12.5388 13.074 12.8837 13.4942ZM13.7162 12.634C13.5299 12.3921 13.3792 12.1543 13.2762 11.9323H14.1523C14.0531 12.1543 13.9025 12.3921 13.7162 12.634Z" fill="#FAFAFA"/>
</svg>
