<svg width="18" height="17" viewBox="0 0 18 17" fill="none" xmlns="http://www.w3.org/2000/svg">
<path d="M1.868 9.91977C1.484 9.91977 1.16 9.78777 0.895999 9.52377C0.632 9.25977 0.5 8.93577 0.5 8.55177C0.5 8.14377 0.632 7.80777 0.895999 7.54377C1.16 7.27977 1.484 7.14777 1.868 7.14777L7.52 7.14777V1.49577C7.52 1.11177 7.664 0.787766 7.952 0.523766C8.216 0.235766 8.54 0.0917664 8.924 0.0917664C9.308 0.0917663 9.644 0.235766 9.932 0.523766C10.196 0.787766 10.328 1.11177 10.328 1.49577V7.14777H15.98C16.388 7.14777 16.724 7.27977 16.988 7.54377C17.252 7.80777 17.384 8.14377 17.384 8.55177C17.384 8.93577 17.252 9.25977 16.988 9.52377C16.724 9.78777 16.388 9.91977 15.98 9.91977H10.328V15.5718C10.328 15.9558 10.196 16.2798 9.932 16.5438C9.668 16.8078 9.332 16.9398 8.924 16.9398C8.516 16.9398 8.18 16.8078 7.916 16.5438C7.652 16.2798 7.52 15.9558 7.52 15.5718V9.91977H1.868Z" fill="#3C8AFF"/>
</svg>
